<svg xmlns="http://www.w3.org/2000/svg" id="Layer_1" data-name="Layer 1" viewBox="0 0 211.68 219.22"><defs fill="#a85521"><style>.cls-1{fill:#a85521;}</style></defs><path class="cls-1" d="M101,25.92h11.62c2.07.26,4.15.48,6.22.79,23.07,3.5,42.08,14.22,56.55,32.52,15.34,19.39,21.36,41.61,18.06,66.07-3.11,23.12-14.08,42.11-32.36,56.61-19.42,15.4-41.67,21.36-66.21,18.17a84.18,84.18,0,0,1-46.2-21.35,86.11,86.11,0,0,1-28.38-52.28c-.37-2.4-.66-4.82-1-7.23V107.6c.27-2.07.5-4.15.8-6.22A87.81,87.81,0,0,1,93.59,26.93C96.05,26.55,98.52,26.26,101,25.92ZM31.28,113.47c.1,41.6,34.12,75.56,75.58,75.46s75.56-34.12,75.46-75.58S148.2,37.79,106.73,37.89,31.19,72,31.28,113.47Z" fill="#a85521"/><path class="cls-1" d="M80.72,119.48c.69.74,1.08,1.19,1.51,1.62q10.5,10.52,21,21c2.93,2.94,2.7,7.09-.42,9.35a5.76,5.76,0,0,1-7,0A15.79,15.79,0,0,1,94,149.93L62.75,118.65c-3.65-3.66-3.67-6.79,0-10.42Q78.54,92.41,94.35,76.58c1.65-1.66,3.5-2.78,5.92-2.33a5.79,5.79,0,0,1,4.69,4,5.9,5.9,0,0,1-1.67,6.4Q95,93,86.62,101.33c-1.89,1.88-3.82,3.7-5.74,5.55l.19.48h65c4,0,6.39,1.77,7,5.1a5.9,5.9,0,0,1-4.41,6.73,14.13,14.13,0,0,1-3,.27l-62.52,0Z" fill="#a85521"/></svg>